<svg xmlns="http://www.w3.org/2000/svg" xmlns:xlink="http://www.w3.org/1999/xlink" width="24" height="24" viewBox="0 0 24 24">
    <defs>
        <path id="a" d="M2 15.87V19h2.213v-1.333c0-.72.75-1.18 1.37-.838L9.51 19h5.122c.21 0 .367-.154.367-.325v-1.698c0-.171-.156-.326-.367-.326H13.29a5.011 5.011 0 0 1-3.725-1.65c-.796.653-1.713 1.002-2.655.999a4.002 4.002 0 0 1-1.94-.522c-.948.522-1.98.653-2.97.391zm0-2.401c.69.34 1.428.32 2.111-.059a1.167 1.167 0 0 1-.111-.5V3.82A3.127 3.127 0 0 0 2 2v11.469zm-2 .675V.954A.95.95 0 0 1 .946 0a5.124 5.124 0 0 1 4.069 2c.044 0 .087.005.13.011A5.124 5.124 0 0 1 9.222 0a.95.95 0 0 1 .947.955v10.8c.003 1.69 1.428 3.072 3.203 3.072h1.366c1.241 0 2.262.993 2.262 2.236v1.702C17 20.008 15.98 21 14.738 21H9.29a.937.937 0 0 1-.449-.114L6.03 19.353v.692a.95.95 0 0 1-.945.955H.944A.95.95 0 0 1 0 20.045v-5.901zm8.505-1c-.143-.461-.22-.951-.222-1.46V2C7 2.389 6.073 3.556 6.07 4.925a.97.97 0 0 1-.07.364v7.62c0 .22-.06.424-.162.595.349.202.714.305 1.078.306.506.002 1.013-.195 1.475-.583.036-.031.075-.059.114-.083zM6 5.288a.982.982 0 0 0 .07-.365c0-.282-.024-.558-.07-.826v1.191z"/>
    </defs>
    <g fill="none" fill-rule="evenodd">
        <path d="M0 0h24v24H0z"/>
        <g transform="translate(4 1)">
            <mask id="b" fill="#fff">
                <use xlink:href="#a"/>
            </mask>
            <use fill="#C8D6E5" fill-rule="nonzero" xlink:href="#a"/>
            <g fill="#C8D6E5" mask="url(#b)">
                <path d="M-16-15h50v50h-50z"/>
            </g>
        </g>
    </g>
</svg>
