<svg width="24" height="24" viewBox="0 0 24 24" fill="none" xmlns="http://www.w3.org/2000/svg">
<path fill-rule="evenodd" clip-rule="evenodd" d="M7.5 2C6.94772 2 6.5 2.44772 6.5 3V5H3C1.89543 5 1 5.89543 1 7V18C1 19.1046 1.89543 20 3 20H6.5V22C6.5 22.5523 6.94772 23 7.5 23H16.5C17.0523 23 17.5 22.5523 17.5 22V20H21C22.1046 20 23 19.1046 23 18V7C23 5.89543 22.1046 5 21 5H17.5V3C17.5 2.44772 17.0523 2 16.5 2H7.5ZM15.5 5V4H8.5V5H15.5ZM6.5 15V18H3V7H21V18H17.5V15H18C18.5523 15 19 14.5523 19 14C19 13.4477 18.5523 13 18 13H16.5H6C5.44772 13 5 13.4477 5 14C5 14.5523 5.44772 15 6 15H6.5ZM8.5 15H15.5V21H8.5V15Z" fill="#11181F"/>
</svg>
