<svg width="24" height="24" viewBox="0 0 24 24" fill="none" xmlns="http://www.w3.org/2000/svg">
<mask id="mask0" style="mask-type:alpha" maskUnits="userSpaceOnUse" x="3" y="3" width="18" height="18">
<path d="M14 3C14.0426 3 14.0846 3.00266 14.1257 3.00783L14 3C14.0528 3 14.1052 3.00418 14.1568 3.01236C14.1884 3.0172 14.2193 3.02362 14.2497 3.03142C14.2598 3.03428 14.2699 3.03705 14.2799 3.03998C14.3109 3.04873 14.3414 3.05923 14.3711 3.0711C14.38 3.07497 14.3891 3.07873 14.398 3.08263C14.4263 3.09464 14.4537 3.10807 14.4803 3.12267C14.4907 3.12856 14.5013 3.13461 14.5118 3.14086C14.5399 3.1575 14.567 3.17555 14.5932 3.19484C14.5996 3.19963 14.6065 3.20483 14.6133 3.21013C14.6177 3.21354 14.6216 3.2166 14.6254 3.21969L14.7071 3.29289L20.7071 9.29289C20.7364 9.32223 20.764 9.35338 20.7895 9.38617L20.7071 9.29289C20.743 9.32874 20.7758 9.36702 20.8055 9.40736C20.8245 9.43297 20.8425 9.46009 20.8592 9.4881C20.8654 9.49874 20.8714 9.50934 20.8773 9.52005C20.8919 9.54634 20.9054 9.5737 20.9175 9.60173C20.9213 9.61094 20.925 9.61998 20.9287 9.62907C20.9408 9.65865 20.9513 9.68906 20.9603 9.72009C20.9629 9.73011 20.9657 9.74019 20.9683 9.75033C20.9764 9.78069 20.9828 9.81161 20.9877 9.84301C20.9893 9.85361 20.9908 9.86402 20.9921 9.87447C20.9973 9.91544 21 9.95741 21 10V17.9915C21 19.6483 19.6569 20.9915 18 20.9915H6C4.34315 20.9915 3 19.6483 3 17.9915V6C3 4.34315 4.34315 3 6 3H14ZM13 4.999L6 5C5.44772 5 5 5.44772 5 6V17.9915C5 18.5437 5.44772 18.9915 6 18.9915H18C18.5523 18.9915 19 18.5437 19 17.9915V11H14C13.4872 11 13.0645 10.614 13.0067 10.1166L13 10V4.999ZM17.586 9L15 6.414V9H17.586Z" fill="white"/>
</mask>
<g mask="url(#mask0)">
<path d="M14 3C14.0426 3 14.0846 3.00266 14.1257 3.00783L14 3C14.0528 3 14.1052 3.00418 14.1568 3.01236C14.1884 3.0172 14.2193 3.02362 14.2497 3.03142C14.2598 3.03428 14.2699 3.03705 14.2799 3.03998C14.3109 3.04873 14.3414 3.05923 14.3711 3.0711C14.38 3.07497 14.3891 3.07873 14.398 3.08263C14.4263 3.09464 14.4537 3.10807 14.4803 3.12267C14.4907 3.12856 14.5013 3.13461 14.5118 3.14086C14.5399 3.1575 14.567 3.17555 14.5932 3.19484C14.5996 3.19963 14.6065 3.20483 14.6133 3.21013C14.6177 3.21354 14.6216 3.2166 14.6254 3.21969L14.7071 3.29289L20.7071 9.29289C20.7364 9.32223 20.764 9.35338 20.7895 9.38617L20.7071 9.29289C20.743 9.32874 20.7758 9.36702 20.8055 9.40736C20.8245 9.43297 20.8425 9.46009 20.8592 9.4881C20.8654 9.49874 20.8714 9.50934 20.8773 9.52005C20.8919 9.54634 20.9054 9.5737 20.9175 9.60173C20.9213 9.61094 20.925 9.61998 20.9287 9.62907C20.9408 9.65865 20.9513 9.68906 20.9603 9.72009C20.963 9.73011 20.9657 9.74019 20.9683 9.75033C20.9764 9.78069 20.9828 9.81161 20.9877 9.84301C20.9893 9.85361 20.9908 9.86402 20.9921 9.87447C20.9973 9.91544 21 9.95741 21 10V17.9915C21 19.6483 19.6569 20.9915 18 20.9915H6C4.34315 20.9915 3 19.6483 3 17.9915V6C3 4.34315 4.34315 3 6 3H14ZM13 4.999L6 5C5.44772 5 5 5.44772 5 6V17.9915C5 18.5437 5.44772 18.9915 6 18.9915H18C18.5523 18.9915 19 18.5437 19 17.9915V11H14C13.4872 11 13.0645 10.614 13.0067 10.1166L13 10V4.999ZM17.586 9L15 6.414V9H17.586Z" fill="#C8D6E5"/>
</g>
</svg>
