<svg width="24" height="24" viewBox="0 0 24 24" fill="none" xmlns="http://www.w3.org/2000/svg">
<path fill-rule="evenodd" clip-rule="evenodd" d="M2 12.4642C2.00333 17.7225 6.28341 22 11.541 22H12.4602C14.1219 22 15.7619 21.5633 17.2019 20.7383C21.7679 18.1233 23.3545 12.2817 20.7403 7.71667L19.4986 5.5425V3.875C19.4986 2.84083 18.6578 2 17.6236 2H15.1236C14.0894 2 13.2485 2.84083 13.2485 3.875V6.37583C13.2494 6.92 13.3935 7.45583 13.6644 7.925L15.3177 10.8208C15.6044 11.3208 15.7552 11.8883 15.7544 12.4642C15.7536 13.3433 15.4094 14.1692 14.7869 14.79C14.1661 15.41 13.3402 15.7508 12.4569 15.7508H11.541C10.9668 15.7508 10.4002 15.6 9.90264 15.3142C9.14013 14.8767 8.59345 14.1683 8.36345 13.3192C8.13428 12.4708 8.24845 11.5833 8.68679 10.8192L10.3351 7.9275C10.6068 7.45667 10.751 6.92 10.7518 6.375V3.875C10.7518 2.84083 9.91098 2 8.87679 2H6.37675C5.34339 2 4.50171 2.84083 4.50171 3.875V5.545L3.26002 7.71917C2.43501 9.16083 1.99917 10.8017 2 12.4642ZM11.8935 19.8033C11.9285 19.8092 11.9652 19.8125 12.0018 19.8125C12.0393 19.8125 12.0752 19.8092 12.111 19.8042C12.5385 19.7542 12.8802 19.4125 12.9302 18.985C12.936 18.9492 12.9394 18.9133 12.9394 18.8758C12.9394 18.8383 12.9369 18.8017 12.9302 18.7667C12.8802 18.3392 12.5385 17.9975 12.111 17.9475C12.0752 17.9417 12.0385 17.9383 12.0018 17.9383C11.9652 17.9383 11.9285 17.9408 11.8935 17.9475C11.466 17.9975 11.1243 18.3383 11.0743 18.7658C11.0685 18.8017 11.0652 18.8383 11.0652 18.875C11.0652 18.9117 11.0677 18.9483 11.0743 18.9842C11.1243 19.4117 11.466 19.7533 11.8935 19.8033ZM17.0761 17.5758C16.8419 17.5758 16.6169 17.4892 16.4444 17.3308L16.4403 17.3268C16.437 17.3238 16.4336 17.3206 16.4336 17.32C16.0636 16.98 16.0378 16.3867 16.3853 16.0058L16.3853 16.0058C16.3861 16.005 16.3878 16.0033 16.3886 16.0017C16.5653 15.8108 16.8161 15.7008 17.0769 15.7008C17.3111 15.7008 17.5353 15.7875 17.7078 15.9442C17.7086 15.945 17.7103 15.9467 17.7119 15.9475C18.0903 16.2967 18.117 16.8883 17.7694 17.2692C17.7694 17.2692 17.7636 17.2758 17.7603 17.2783C17.7453 17.2933 17.7303 17.3067 17.7144 17.32C17.7109 17.3236 17.7064 17.3275 17.7015 17.3317L17.6919 17.34C17.5186 17.4925 17.3003 17.5758 17.0761 17.5758ZM18.2486 12.1025C18.417 12.2433 18.6303 12.3208 18.8486 12.3208C18.8611 12.3208 18.8736 12.3208 18.8778 12.32L18.9486 12.3158C19.1936 12.29 19.4145 12.1717 19.572 11.9825C19.7203 11.8042 19.7953 11.5767 19.7853 11.3625C19.7861 11.3425 19.7861 11.3225 19.7845 11.3017C19.7845 11.3017 19.7836 11.2917 19.7828 11.2867C19.757 11.0417 19.6403 10.8208 19.4511 10.6633C19.2878 10.5267 19.0878 10.4533 18.872 10.4483C18.8611 10.4475 18.8495 10.4475 18.8386 10.4475H18.7986C18.7886 10.4475 18.7778 10.4483 18.7678 10.4492C18.7561 10.45 18.7445 10.4517 18.7328 10.4542C18.7303 10.455 18.7278 10.455 18.7253 10.4558L18.7109 10.4584C18.6935 10.4615 18.6765 10.4646 18.6595 10.4692C18.2386 10.5575 17.9286 10.9275 17.9161 11.3567C17.9145 11.3858 17.9136 11.4158 17.9153 11.4458C17.9153 11.4525 17.9153 11.46 17.9161 11.4667C17.9386 11.7158 18.0561 11.9417 18.2486 12.1025ZM6.92842 17.5758C6.70342 17.5758 6.48425 17.4925 6.31174 17.34C6.30924 17.3383 6.30008 17.33 6.29758 17.3275C6.27341 17.3083 6.25424 17.2908 6.23591 17.2708C5.88674 16.8883 5.91424 16.2942 6.29591 15.9458C6.46925 15.7883 6.69342 15.7017 6.92759 15.7017C7.18593 15.7017 7.43426 15.8092 7.61093 15.9967C7.61427 16 7.6201 16.0067 7.6201 16.0067C7.96761 16.3875 7.94177 16.9808 7.5626 17.3292C7.56135 17.33 7.56031 17.331 7.55927 17.3321L7.55926 17.3321C7.55822 17.3331 7.55718 17.3342 7.55593 17.335C7.38343 17.49 7.16093 17.5758 6.92842 17.5758ZM5.05256 12.315L5.07339 12.3175C5.07589 12.3183 5.14922 12.3208 5.15506 12.3208C5.63507 12.3208 6.04507 11.9458 6.08841 11.4675C6.08841 11.4673 6.08849 11.4647 6.08862 11.4605C6.08907 11.4463 6.09007 11.4144 6.09007 11.4067C6.09007 11.3908 6.09007 11.3758 6.08757 11.3592C6.07591 10.9275 5.76423 10.555 5.34173 10.4675C5.32897 10.4647 5.31621 10.4624 5.30397 10.4603C5.30182 10.4599 5.29968 10.4595 5.29756 10.4592C5.27923 10.4542 5.26006 10.4508 5.24006 10.4492C5.23956 10.4492 5.2343 10.449 5.22691 10.4488C5.2096 10.4483 5.18065 10.4475 5.17422 10.4475C5.15756 10.4475 5.14089 10.4475 5.12422 10.4492C4.66755 10.465 4.29088 10.8017 4.23087 11.2367L4.23087 11.2367C4.22671 11.2567 4.22254 11.2767 4.22087 11.2975C4.22004 11.3083 4.22004 11.3258 4.22004 11.34C4.20837 11.575 4.28421 11.8025 4.43338 11.9825C4.58838 12.1692 4.80588 12.2867 5.05256 12.315Z" fill="white"/>
<mask id="mask0" mask-type="alpha" maskUnits="userSpaceOnUse" x="2" y="2" width="20" height="20">
<path fill-rule="evenodd" clip-rule="evenodd" d="M2 12.4642C2.00333 17.7225 6.28341 22 11.541 22H12.4602C14.1219 22 15.7619 21.5633 17.2019 20.7383C21.7679 18.1233 23.3545 12.2817 20.7403 7.71667L19.4986 5.5425V3.875C19.4986 2.84083 18.6578 2 17.6236 2H15.1236C14.0894 2 13.2485 2.84083 13.2485 3.875V6.37583C13.2494 6.92 13.3935 7.45583 13.6644 7.925L15.3177 10.8208C15.6044 11.3208 15.7552 11.8883 15.7544 12.4642C15.7536 13.3433 15.4094 14.1692 14.7869 14.79C14.1661 15.41 13.3402 15.7508 12.4569 15.7508H11.541C10.9668 15.7508 10.4002 15.6 9.90264 15.3142C9.14013 14.8767 8.59345 14.1683 8.36345 13.3192C8.13428 12.4708 8.24845 11.5833 8.68679 10.8192L10.3351 7.9275C10.6068 7.45667 10.751 6.92 10.7518 6.375V3.875C10.7518 2.84083 9.91098 2 8.87679 2H6.37675C5.34339 2 4.50171 2.84083 4.50171 3.875V5.545L3.26002 7.71917C2.43501 9.16083 1.99917 10.8017 2 12.4642ZM11.8935 19.8033C11.9285 19.8092 11.9652 19.8125 12.0018 19.8125C12.0393 19.8125 12.0752 19.8092 12.111 19.8042C12.5385 19.7542 12.8802 19.4125 12.9302 18.985C12.936 18.9492 12.9394 18.9133 12.9394 18.8758C12.9394 18.8383 12.9369 18.8017 12.9302 18.7667C12.8802 18.3392 12.5385 17.9975 12.111 17.9475C12.0752 17.9417 12.0385 17.9383 12.0018 17.9383C11.9652 17.9383 11.9285 17.9408 11.8935 17.9475C11.466 17.9975 11.1243 18.3383 11.0743 18.7658C11.0685 18.8017 11.0652 18.8383 11.0652 18.875C11.0652 18.9117 11.0677 18.9483 11.0743 18.9842C11.1243 19.4117 11.466 19.7533 11.8935 19.8033ZM17.0761 17.5758C16.8419 17.5758 16.6169 17.4892 16.4444 17.3308L16.4403 17.3268C16.437 17.3238 16.4336 17.3206 16.4336 17.32C16.0636 16.98 16.0378 16.3867 16.3853 16.0058L16.3853 16.0058C16.3861 16.005 16.3878 16.0033 16.3886 16.0017C16.5653 15.8108 16.8161 15.7008 17.0769 15.7008C17.3111 15.7008 17.5353 15.7875 17.7078 15.9442C17.7086 15.945 17.7103 15.9467 17.7119 15.9475C18.0903 16.2967 18.117 16.8883 17.7694 17.2692C17.7694 17.2692 17.7636 17.2758 17.7603 17.2783C17.7453 17.2933 17.7303 17.3067 17.7144 17.32C17.7109 17.3236 17.7064 17.3275 17.7015 17.3317L17.6919 17.34C17.5186 17.4925 17.3003 17.5758 17.0761 17.5758ZM18.2486 12.1025C18.417 12.2433 18.6303 12.3208 18.8486 12.3208C18.8611 12.3208 18.8736 12.3208 18.8778 12.32L18.9486 12.3158C19.1936 12.29 19.4145 12.1717 19.572 11.9825C19.7203 11.8042 19.7953 11.5767 19.7853 11.3625C19.7861 11.3425 19.7861 11.3225 19.7845 11.3017C19.7845 11.3017 19.7836 11.2917 19.7828 11.2867C19.757 11.0417 19.6403 10.8208 19.4511 10.6633C19.2878 10.5267 19.0878 10.4533 18.872 10.4483C18.8611 10.4475 18.8495 10.4475 18.8386 10.4475H18.7986C18.7886 10.4475 18.7778 10.4483 18.7678 10.4492C18.7561 10.45 18.7445 10.4517 18.7328 10.4542C18.7303 10.455 18.7278 10.455 18.7253 10.4558L18.7109 10.4584C18.6935 10.4615 18.6765 10.4646 18.6595 10.4692C18.2386 10.5575 17.9286 10.9275 17.9161 11.3567C17.9145 11.3858 17.9136 11.4158 17.9153 11.4458C17.9153 11.4525 17.9153 11.46 17.9161 11.4667C17.9386 11.7158 18.0561 11.9417 18.2486 12.1025ZM6.92842 17.5758C6.70342 17.5758 6.48425 17.4925 6.31174 17.34C6.30924 17.3383 6.30008 17.33 6.29758 17.3275C6.27341 17.3083 6.25424 17.2908 6.23591 17.2708C5.88674 16.8883 5.91424 16.2942 6.29591 15.9458C6.46925 15.7883 6.69342 15.7017 6.92759 15.7017C7.18593 15.7017 7.43426 15.8092 7.61093 15.9967C7.61427 16 7.6201 16.0067 7.6201 16.0067C7.96761 16.3875 7.94177 16.9808 7.5626 17.3292C7.56135 17.33 7.56031 17.331 7.55927 17.3321L7.55926 17.3321C7.55822 17.3331 7.55718 17.3342 7.55593 17.335C7.38343 17.49 7.16093 17.5758 6.92842 17.5758ZM5.05256 12.315L5.07339 12.3175C5.07589 12.3183 5.14922 12.3208 5.15506 12.3208C5.63507 12.3208 6.04507 11.9458 6.08841 11.4675C6.08841 11.4673 6.08849 11.4647 6.08862 11.4605C6.08907 11.4463 6.09007 11.4144 6.09007 11.4067C6.09007 11.3908 6.09007 11.3758 6.08757 11.3592C6.07591 10.9275 5.76423 10.555 5.34173 10.4675C5.32897 10.4647 5.31621 10.4624 5.30397 10.4603C5.30182 10.4599 5.29968 10.4595 5.29756 10.4592C5.27923 10.4542 5.26006 10.4508 5.24006 10.4492C5.23956 10.4492 5.2343 10.449 5.22691 10.4488C5.2096 10.4483 5.18065 10.4475 5.17422 10.4475C5.15756 10.4475 5.14089 10.4475 5.12422 10.4492C4.66755 10.465 4.29088 10.8017 4.23087 11.2367L4.23087 11.2367C4.22671 11.2567 4.22254 11.2767 4.22087 11.2975C4.22004 11.3083 4.22004 11.3258 4.22004 11.34C4.20837 11.575 4.28421 11.8025 4.43338 11.9825C4.58838 12.1692 4.80588 12.2867 5.05256 12.315Z" fill="white"/>
</mask>
<g mask="url(#mask0)">
<rect width="24" height="24" fill="#C8D6E5"/>
</g>
</svg>
