<svg width="24" height="24" viewBox="0 0 24 24" fill="none" xmlns="http://www.w3.org/2000/svg">
<mask id="mask0" mask-type="alpha" maskUnits="userSpaceOnUse" x="2" y="4" width="20" height="16">
<path d="M8.27612 18.788C7.98306 19.4987 7.27338 20 6.44444 20C5.61551 20 4.90583 19.4987 4.61277 18.788L3.97531 18.7879C2.88438 18.7879 2 17.9196 2 16.8485V12.2442L13.111 12.244V10.718L2 10.7188V7.15152C2 5.471 3.33971 4.0977 5.02773 4.00499L5.20988 4H18.7901C20.5629 4 22 5.41098 22 7.15152C22 8.63609 20.9545 9.88091 19.5469 10.2149L21.5029 12.9022C21.786 13.2907 21.9544 13.7469 21.992 14.2204L22 14.4242V16.8485C22 17.8709 21.1942 18.7085 20.1721 18.7826L20.0247 18.7879L19.3872 18.788C19.0942 19.4987 18.3845 20 17.5556 20C16.7266 20 16.0169 19.4987 15.7239 18.788H8.27612ZM17.5556 17.5758C17.2828 17.5758 17.0617 17.7928 17.0617 18.0606C17.0617 18.3284 17.2828 18.5455 17.5556 18.5455C17.8283 18.5455 18.0494 18.3284 18.0494 18.0606C18.0494 17.7928 17.8283 17.5758 17.5556 17.5758ZM6.44444 17.5758C6.17171 17.5758 5.95062 17.7928 5.95062 18.0606C5.95062 18.3284 6.17171 18.5455 6.44444 18.5455C6.71718 18.5455 6.93827 18.3284 6.93827 18.0606C6.93827 17.7928 6.71718 17.5758 6.44444 17.5758ZM20.5181 15.1515H14.5921L14.592 17.333L15.724 17.3329C15.9996 16.6649 16.6433 16.1819 17.4081 16.1265L17.5556 16.1212C18.3844 16.1212 19.094 16.6224 19.3871 17.3329L20.0247 17.3333C20.2671 17.3333 20.4688 17.1618 20.5106 16.9356L20.5185 16.8485L20.5181 15.1515ZM17.7916 10.303H14.5926L14.5921 13.6965H20.2601L17.7916 10.303Z" fill="white"/>
</mask>
<g mask="url(#mask0)">
<path d="M8.27612 18.788C7.98306 19.4987 7.27338 20 6.44444 20C5.61551 20 4.90583 19.4987 4.61277 18.788L3.97531 18.7879C2.88438 18.7879 2 17.9196 2 16.8485V12.2442L13.111 12.244V10.718L2 10.7188V7.15152C2 5.471 3.33971 4.0977 5.02773 4.00499L5.20988 4H18.7901C20.5629 4 22 5.41098 22 7.15152C22 8.63609 20.9545 9.88091 19.5469 10.2149L21.5029 12.9022C21.786 13.2907 21.9544 13.7469 21.992 14.2204L22 14.4242V16.8485C22 17.8709 21.1942 18.7085 20.1721 18.7826L20.0247 18.7879L19.3872 18.788C19.0942 19.4987 18.3845 20 17.5556 20C16.7266 20 16.0169 19.4987 15.7239 18.788H8.27612ZM17.5556 17.5758C17.2828 17.5758 17.0617 17.7928 17.0617 18.0606C17.0617 18.3284 17.2828 18.5455 17.5556 18.5455C17.8283 18.5455 18.0494 18.3284 18.0494 18.0606C18.0494 17.7928 17.8283 17.5758 17.5556 17.5758ZM6.44444 17.5758C6.17171 17.5758 5.95062 17.7928 5.95062 18.0606C5.95062 18.3284 6.17171 18.5455 6.44444 18.5455C6.71718 18.5455 6.93827 18.3284 6.93827 18.0606C6.93827 17.7928 6.71718 17.5758 6.44444 17.5758ZM20.5181 15.1515H14.5921L14.592 17.333L15.724 17.3329C15.9996 16.6649 16.6433 16.1819 17.4081 16.1265L17.5556 16.1212C18.3844 16.1212 19.094 16.6224 19.3871 17.3329L20.0247 17.3333C20.2671 17.3333 20.4688 17.1618 20.5106 16.9356L20.5185 16.8485L20.5181 15.1515ZM17.7916 10.303H14.5926L14.5921 13.6965H20.2601L17.7916 10.303Z" fill="#8395A7"/>
<path d="M24 0H0V24H24V0Z" fill="#C8D6E5"/>
</g>
</svg>
